<svg width="60" height="52" viewBox="0 0 60 52" fill="none" xmlns="http://www.w3.org/2000/svg">
<g clip-path="url(#clip0_2061_4100)">
<path d="M18.2498 19.937C17.1756 20.3762 16.1262 20.8702 15.106 21.417L29.8819 0L41.2153 15.9264C41.2153 15.9264 40.5866 15.5884 38.5745 15.4149C35.7451 15.1712 31.8059 15.7894 28.7407 16.4624C25.6755 17.1354 21.2333 18.7037 18.2403 19.9339" fill="white"/>
<path d="M42.5834 18.0002L47.406 25.1047C47.406 25.1047 43.5737 24.4591 40.2413 24.7028C36.9088 24.9464 27.666 25.9208 27.666 25.9208C27.666 25.9208 35.4155 22.1265 38.4996 20.5917C41.5837 19.0569 42.5866 18.0094 42.5866 18.0094" fill="white"/>
<path d="M59.9998 43.4186L50.7475 29.9375C50.7475 29.9375 50.6626 31.7129 46.4971 33.9724C42.3315 36.2319 39.499 37.3617 34.079 39.2985C28.6591 41.2352 23.1763 43.4948 23.1763 43.4948L59.9998 43.4186Z" fill="white"/>
<path d="M0 43.5861H16.4453C16.4453 43.5861 28.3352 39.1583 35.2202 35.8391C41.2468 32.9339 45.3495 30.1415 44.3372 28.1712C43.5858 26.7187 39.8636 26.7187 35.4214 26.7187C31.8657 26.7187 27.8448 26.9988 25.7541 26.9592C22.8933 26.9044 23.8364 26.5816 24.8393 25.9086C25.5749 25.4123 32.834 21.4626 34.6731 20.4273C37.2825 18.9473 36.245 18.2195 35.063 18.5697C33.1955 19.1178 27.1751 21.7184 20.9158 25.3514C15.7632 28.3713 10.9584 31.9157 6.58314 35.9243C3.08408 39.0731 0 43.5922 0 43.5922" fill="white"/>
<path d="M0.917892 47.0729V45.6995C0.917892 45.6995 13.861 45.6204 15.3606 45.6204C16.8602 45.6204 17.8316 46.3817 17.8316 47.4231C17.8316 48.4646 16.5741 48.8483 16.5741 48.8483C16.5741 48.8483 17.8316 49.232 17.8316 50.4622C17.8316 51.2966 17.2029 51.9848 15.3606 51.9848H0.833008V50.5323H12.4148V49.6614H5.33181V47.9652H12.4148V47.0973L0.917892 47.0729Z" fill="white"/>
<path d="M35.9589 45.666H21.8746C21.1731 45.6676 20.5008 45.9383 20.0047 46.4188C19.5086 46.8993 19.2292 47.5505 19.2275 48.2301V49.3994C19.2292 50.079 19.5086 50.7302 20.0047 51.2107C20.5008 51.6912 21.1731 51.9619 21.8746 51.9635H35.9589C36.6605 51.9619 37.3328 51.6912 37.8289 51.2107C38.3249 50.7302 38.6044 50.079 38.606 49.3994V48.2301C38.6052 47.5503 38.326 46.8986 37.8298 46.4179C37.3335 45.9372 36.6607 45.6668 35.9589 45.666ZM33.0635 50.4683H24.7701V47.1582H33.0603V50.4683H33.0635Z" fill="white"/>
<path d="M58.3144 48.8512C58.3144 48.8512 59.5719 48.4767 59.5719 47.4261C59.5719 46.3755 58.6004 45.6233 57.0977 45.6233H40.1211V52H57.0977C58.9305 52 59.5719 51.2996 59.5719 50.4774C59.5719 49.2593 58.3144 48.8604 58.3144 48.8604M54.1519 47.9742H47.0658V49.6673H54.1519V50.5535H45.5536V47.0728H54.1488V47.9407L54.1519 47.9742Z" fill="white"/>
</g>
<defs>
<clipPath id="clip0_2061_4100">
<rect width="60" height="52" fill="white"/>
</clipPath>
</defs>
</svg>
